<svg xmlns="http://www.w3.org/2000/svg" width="200" height="200" viewBox="0 0 200 200">
  <g id="GenericProfilePicture" transform="translate(-1339 -194)">
    <circle id="Elipse_4" data-name="Elipse 4" cx="100" cy="100" r="100" transform="translate(1339 194)" fill="#878787"/>
    <path id="Sustracción_1" data-name="Sustracción 1" d="M174.519,166.686v0A33.876,33.876,0,0,0,175,161c0-12.037-6.507-23.667-18.323-32.748-11.7-8.99-27.808-14.916-45.363-16.687a45,45,0,1,0-22.63,0c-17.554,1.77-33.664,7.7-45.362,16.687C31.507,137.333,25,148.963,25,161a34.05,34.05,0,0,0,.479,5.682,99.873,99.873,0,0,1-8.4-122.593,100.292,100.292,0,0,1,44-36.23,99.868,99.868,0,0,1,94.835,9.22,100.292,100.292,0,0,1,36.23,44,99.9,99.9,0,0,1-17.62,105.609Z" transform="translate(1339 194)" fill="#d4d4d4"/>
  </g>
</svg>
