<svg xmlns="http://www.w3.org/2000/svg" width="366" height="371" viewBox="0 0 366 371">
  <g id="Herramientas" transform="translate(-213.5 511)">
    <path id="Exclusión_1" data-name="Exclusión 1" d="M150,300a151.11,151.11,0,0,1-30.23-3.047,149.179,149.179,0,0,1-53.636-22.57,150.437,150.437,0,0,1-54.346-66,149.241,149.241,0,0,1-8.74-28.156,151.463,151.463,0,0,1,0-60.46,149.18,149.18,0,0,1,22.57-53.636,150.437,150.437,0,0,1,66-54.346,149.245,149.245,0,0,1,28.157-8.74,151.463,151.463,0,0,1,60.46,0,149.178,149.178,0,0,1,53.636,22.57,150.437,150.437,0,0,1,54.346,66,149.25,149.25,0,0,1,8.74,28.157,151.463,151.463,0,0,1,0,60.46,149.177,149.177,0,0,1-22.57,53.636,150.437,150.437,0,0,1-66,54.346,149.246,149.246,0,0,1-28.156,8.74A151.107,151.107,0,0,1,150,300Zm0-250A100,100,0,1,0,250,150,100.113,100.113,0,0,0,150,50Z" transform="translate(247 -475)" fill="#b9b9b9"/>
    <rect id="Rectángulo_79" data-name="Rectángulo 79" width="54" height="45" rx="10" transform="translate(370 -511)" fill="#b9b9b9"/>
    <rect id="Rectángulo_80" data-name="Rectángulo 80" width="54" height="45" rx="10" transform="translate(370 -185)" fill="#b9b9b9"/>
    <rect id="Rectángulo_81" data-name="Rectángulo 81" width="54" height="45" rx="10" transform="translate(579.5 -359.5) rotate(90)" fill="#b9b9b9"/>
    <rect id="Rectángulo_83" data-name="Rectángulo 83" width="54" height="45" rx="10" transform="translate(508.818 -471.502) rotate(45)" fill="#b9b9b9"/>
    <rect id="Rectángulo_85" data-name="Rectángulo 85" width="54" height="45" rx="10" transform="translate(277.818 -247.502) rotate(45)" fill="#b9b9b9"/>
    <rect id="Rectángulo_86" data-name="Rectángulo 86" width="54" height="45" rx="10" transform="translate(477.998 -214.318) rotate(-45)" fill="#b9b9b9"/>
    <rect id="Rectángulo_84" data-name="Rectángulo 84" width="54" height="45" rx="10" transform="translate(246.998 -436.318) rotate(-45)" fill="#b9b9b9"/>
    <rect id="Rectángulo_82" data-name="Rectángulo 82" width="54" height="45" rx="10" transform="translate(258.5 -359.5) rotate(90)" fill="#b9b9b9"/>
  </g>
</svg>
