<svg xmlns="http://www.w3.org/2000/svg" width="241.477" height="310.029" viewBox="0 0 241.477 310.029">
  <g id="Hoja" transform="translate(794 493.029)">
    <path id="Rectángulo_54" data-name="Rectángulo 54" d="M0,0H180a60,60,0,0,1,60,60V310a0,0,0,0,1,0,0H0a0,0,0,0,1,0,0V0A0,0,0,0,1,0,0Z" transform="translate(-794 -493)" fill="#f1f1f1"/>
    <path id="Trazado_2" data-name="Trazado 2" d="M-609.429-493a22.469,22.469,0,0,1,6.918,14.478,34.372,34.372,0,0,1-1.276,12.549h0a37.909,37.909,0,0,1-16.436,24.262h66.7s-.093-6.564-7.878-20.981a28.172,28.172,0,0,0-2.159-3.48,93.43,93.43,0,0,0-6.985-8.473,58.7,58.7,0,0,0-6.6-5.745c-1.163-.872-2.242-1.7-3.682-2.616a66.956,66.956,0,0,0-6.873-3.816c-13.581-6.425-16.677-6.134-18.958-6.176a11.671,11.671,0,0,0-2.076,0" transform="translate(1)" fill="#e2e2e2"/>
    <rect id="Rectángulo_55" data-name="Rectángulo 55" width="190" height="12" rx="6" transform="translate(-769 -423)" fill="#979797"/>
    <rect id="Rectángulo_56" data-name="Rectángulo 56" width="190" height="12" rx="6" transform="translate(-769 -357)" fill="#979797"/>
    <rect id="Rectángulo_59" data-name="Rectángulo 59" width="190" height="12" rx="6" transform="translate(-769 -335)" fill="#979797"/>
    <rect id="Rectángulo_60" data-name="Rectángulo 60" width="190" height="12" rx="6" transform="translate(-769 -313)" fill="#979797"/>
    <rect id="Rectángulo_61" data-name="Rectángulo 61" width="190" height="12" rx="6" transform="translate(-769 -291)" fill="#979797"/>
    <rect id="Rectángulo_62" data-name="Rectángulo 62" width="190" height="12" rx="6" transform="translate(-769 -269)" fill="#979797"/>
    <rect id="Rectángulo_63" data-name="Rectángulo 63" width="190" height="12" rx="6" transform="translate(-769 -247)" fill="#979797"/>
    <rect id="Rectángulo_64" data-name="Rectángulo 64" width="190" height="12" rx="6" transform="translate(-769 -225)" fill="#979797"/>
    <rect id="Rectángulo_58" data-name="Rectángulo 58" width="190" height="12" rx="6" transform="translate(-769 -401)" fill="#979797"/>
    <rect id="Rectángulo_57" data-name="Rectángulo 57" width="190" height="12" rx="6" transform="translate(-769 -379)" fill="#979797"/>
  </g>
</svg>
