<svg xmlns="http://www.w3.org/2000/svg" width="117.463" height="106.242" viewBox="0 0 117.463 106.242">
  <g id="EditFileIcon" transform="translate(-1685.698 175.938)">
    <g id="Hoja" transform="matrix(0.995, -0.105, 0.105, 0.995, 2527.434, 239.916)">
      <path id="Rectángulo_54" data-name="Rectángulo 54" d="M0,0H56.733A18.911,18.911,0,0,1,75.645,18.911v78.8H0Z" transform="translate(-794 -493.03)" fill="#f1f1f1" stroke="#707070" stroke-width="1"/>
      <path id="Trazado_2" data-name="Trazado 2" d="M-616.821-493.03a7.082,7.082,0,0,1,2.18,4.563,10.833,10.833,0,0,1-.4,3.955h0a11.948,11.948,0,0,1-5.18,7.647H-599.2s-.029-2.069-2.483-6.613a8.881,8.881,0,0,0-.68-1.1,29.444,29.444,0,0,0-2.2-2.671,18.493,18.493,0,0,0-2.08-1.811c-.367-.275-.707-.536-1.161-.825a21.106,21.106,0,0,0-2.166-1.2c-4.281-2.025-5.256-1.933-5.975-1.947a3.684,3.684,0,0,0-.654,0" transform="translate(-118.69 0)" fill="#e2e2e2" stroke="#707070" stroke-width="1"/>
      <g id="Grupo_6" data-name="Grupo 6">
        <rect id="Rectángulo_55" data-name="Rectángulo 55" width="59.885" height="3.782" rx="1.891" transform="translate(-786.12 -466.967)" fill="#979797"/>
        <rect id="Rectángulo_59" data-name="Rectángulo 59" width="59.885" height="3.782" rx="1.891" transform="translate(-786.12 -447.231)" fill="#979797"/>
        <rect id="Rectángulo_61" data-name="Rectángulo 61" width="59.885" height="3.782" rx="1.891" transform="translate(-786.12 -437.363)" fill="#979797"/>
        <rect id="Rectángulo_63" data-name="Rectángulo 63" width="59.885" height="3.782" rx="1.891" transform="translate(-786.12 -427.495)" fill="#979797"/>
        <rect id="Rectángulo_64" data-name="Rectángulo 64" width="35.885" height="3.782" rx="1.891" transform="translate(-786.12 -417.626)" fill="#979797"/>
        <rect id="Rectángulo_57" data-name="Rectángulo 57" width="59.885" height="3.782" rx="1.891" transform="translate(-786.12 -457.099)" fill="#979797"/>
      </g>
    </g>
    <g id="Grupo_5" data-name="Grupo 5" transform="translate(227.828 -409.326)">
      <g id="Rectángulo_3" data-name="Rectángulo 3" transform="translate(1512.934 301.028) rotate(-45)" fill="#fff" stroke="#707070" stroke-width="1">
        <rect width="73.537" height="14.707" rx="2" stroke="none"/>
        <rect x="0.5" y="0.5" width="72.537" height="13.707" rx="1.5" fill="none"/>
      </g>
      <g id="Polígono_1" data-name="Polígono 1" transform="translate(1514.772 319.99) rotate(-135)" fill="#fff">
        <path d="M 13.89844417572021 14.20745944976807 L 0.8090142607688904 14.20745944976807 L 7.353729248046875 1.118029713630676 L 13.89844417572021 14.20745944976807 Z" stroke="none"/>
        <path d="M 7.353729248046875 2.236069679260254 L 1.618034362792969 13.70745944976807 L 13.08942413330078 13.70745944976807 L 7.353729248046875 2.236069679260254 M 7.353729248046875 0 L 14.70745944976807 14.70745944976807 L -9.5367431640625e-07 14.70745944976807 L 7.353729248046875 0 Z" stroke="none" fill="#707070"/>
      </g>
    </g>
  </g>
</svg>
